<svg height="512pt" viewBox="0 -29 512.002 512" width="512pt" xmlns="http://www.w3.org/2000/svg"><path d="M229.234 384.254l-2.52-49.895a220.92 220.92 0 00-15.507 3.743c-9.68 2.722-19.547-1.07-25.129-8.711-4.43-6.067-5.656-13.664-3.367-20.84 5.285-16.547 12.703-31.477 20.566-44.328l-6.023-16.352 4.402-94.984 10.41 6.953 2.723-4.078v.043l19.531-26.38L189.125 98.5a24.451 24.451 0 00-13.816-4.277h-56.094a24.466 24.466 0 00-20.016 10.398l-45.68 65.004-48.269 51.77c-6.977 7.48-7.078 19.285.176 26.5 7.594 7.55 19.84 7.242 27.054-.5l47.594-51.043c1.496-1.649 2.403-2.442 3.54-4.07l10.62-15.188-4 86.379-30.836 63.41a21.934 21.934 0 00-1.757 5.144l-19.809 95.7c-2.453 11.859 5.168 23.46 17.027 25.918 11.832 2.449 23.457-5.145 25.918-17.028l19.254-93.02c6.016-12.37 23.5-48.324 29.223-60.085l35.062 1.824c5.82 15.8 13.086 35.523 18.555 50.379l4.93 97.566c.777 15.407 16.687 24.934 30.469 19.082-6.586-9.765-8.274-22.558-3.348-34.222zM152.383 83.043c22.719 1.18 42.449-16.262 43.648-39.336C197.223 20.793 179.613 1.25 156.7.059c-22.914-1.192-42.46 16.418-43.652 39.332-1.195 23.043 16.578 42.468 39.336 43.652zm86.265 249.219l-2.316 16.031a21.033 21.033 0 002.473 13.305l13.03-30.856c-4.581.383-8.991.903-13.187 1.52zm68.067 55.351l-19.45 46.047 7.786 11.317c6.61 9.609 19.726 11.992 29.281 5.418 9.582-6.59 12.008-19.7 5.418-29.282zm-38.313-56.656l-39.656 93.89c-4.523 10.712.492 23.067 11.207 27.594 10.692 4.512 23.059-.472 27.59-11.207L311.57 337c-13.347-3.95-27.78-5.973-43.168-6.043zM352.3 56.477c0 22.039-17.863 39.902-39.898 39.902-22.039 0-39.902-17.863-39.902-39.902 0-22.036 17.863-39.903 39.902-39.903 22.035 0 39.899 17.867 39.899 39.903zm0 0"/><path d="M496.05 129.7c-104.14-12.352-176.183-20.095-207.609-23.387a31.228 31.228 0 00-28.359 12.492l-44.66 60.386-1.809 1.938-2.605 56.305 31.808-34.118a18.4 18.4 0 001.317-1.582l10.379-14.015-1.668 36.293s-40.657 35.851-57.492 88.578c-2.434 7.62 4.574 14.906 12.27 12.742 14.03-3.945 35.57-8.52 59.952-8.52 23.563 0 49.785 4.274 74.457 17.524 10.54 5.66 21.465 8.09 32.446 8.09 46.875 0 94.886-44.29 119.535-70.934 5.543-5.988.273-15.558-7.762-14.144-12.445 2.187-28.527 4.191-45.645 4.191-33.82 0-71.699-7.824-93.687-37.527l3.453-75.211 141.418 16.8c.723.086 1.441.13 2.156.13 9.032 0 16.836-6.758 17.93-15.946 1.176-9.918-5.906-18.91-15.824-20.086zm0 0"/></svg>